<svg xmlns="http://www.w3.org/2000/svg" xmlns:xlink="http://www.w3.org/1999/xlink" width="279" height="328" viewBox="0 0 279 328">
  <defs>
    <linearGradient id="linear-gradient" x1="0.5" x2="0.5" y2="1" gradientUnits="objectBoundingBox">
      <stop offset="0" stop-color="#e8f2ff"/>
      <stop offset="1" stop-color="#fff" stop-opacity="0"/>
    </linearGradient>
    <filter id="Rectangle_418" x="0" y="0" width="279" height="328" filterUnits="userSpaceOnUse">
      <feOffset dy="3" input="SourceAlpha"/>
      <feGaussianBlur stdDeviation="18" result="blur"/>
      <feFlood flood-color="#247cff" flood-opacity="0.2"/>
      <feComposite operator="in" in2="blur"/>
      <feComposite in="SourceGraphic"/>
    </filter>
  </defs>
  <g id="Group_11867" data-name="Group 11867" transform="translate(-877 -186)">
    <g transform="matrix(1, 0, 0, 1, 877, 186)" filter="url(#Rectangle_418)">
      <rect id="Rectangle_418-2" data-name="Rectangle 418" width="171" height="220" rx="32" transform="translate(54 51)" fill="url(#linear-gradient)"/>
    </g>
    <g id="Group_11865" data-name="Group 11865" transform="translate(962.741 254.155)">
      <g id="Group_11862" data-name="Group 11862" transform="translate(2.14)">
        <path id="Path_27268" data-name="Path 27268" d="M11.913-13.49a1.162,1.162,0,0,1,.874.332,1.214,1.214,0,0,1,.323.884V-1.121a1.227,1.227,0,0,1-.333.893,1.152,1.152,0,0,1-.864.342,1.145,1.145,0,0,1-.874-.342,1.247,1.247,0,0,1-.323-.893V-5.814H3.857v4.693a1.227,1.227,0,0,1-.332.893,1.176,1.176,0,0,1-.883.342,1.152,1.152,0,0,1-.865-.342,1.227,1.227,0,0,1-.332-.893V-12.274a1.214,1.214,0,0,1,.323-.884,1.162,1.162,0,0,1,.874-.332,1.194,1.194,0,0,1,.883.332,1.194,1.194,0,0,1,.332.884V-7.79h6.859v-4.484a1.214,1.214,0,0,1,.323-.884A1.162,1.162,0,0,1,11.913-13.49ZM19.456.152a5.112,5.112,0,0,1-2.5-.589A4.075,4.075,0,0,1,15.3-2.128a5.361,5.361,0,0,1-.589-2.565A5.305,5.305,0,0,1,15.3-7.248,4.089,4.089,0,0,1,16.958-8.93a5.112,5.112,0,0,1,2.5-.589,5.112,5.112,0,0,1,2.5.589,4.03,4.03,0,0,1,1.653,1.682,5.376,5.376,0,0,1,.58,2.555,5.433,5.433,0,0,1-.58,2.565A4.017,4.017,0,0,1,21.955-.437,5.112,5.112,0,0,1,19.456.152Zm-.019-1.843a2.129,2.129,0,0,0,1.767-.76,3.531,3.531,0,0,0,.608-2.242A3.538,3.538,0,0,0,21.2-6.926a2.1,2.1,0,0,0-1.748-.77,2.123,2.123,0,0,0-1.757.77,3.5,3.5,0,0,0-.618,2.233,3.531,3.531,0,0,0,.608,2.242A2.108,2.108,0,0,0,19.437-1.691ZM36.613-9.519a2.961,2.961,0,0,1,2.328.9A4.315,4.315,0,0,1,39.748-5.7v4.674a1.07,1.07,0,0,1-.333.846,1.255,1.255,0,0,1-.864.295,1.228,1.228,0,0,1-.846-.295,1.07,1.07,0,0,1-.333-.846V-5.7A2.35,2.35,0,0,0,37-7.192a1.385,1.385,0,0,0-1.131-.446A1.861,1.861,0,0,0,34.39-7a2.567,2.567,0,0,0-.551,1.739v4.237a1.07,1.07,0,0,1-.333.846,1.228,1.228,0,0,1-.845.295,1.264,1.264,0,0,1-.855-.295,1.055,1.055,0,0,1-.342-.846V-5.7a2.35,2.35,0,0,0-.37-1.491,1.385,1.385,0,0,0-1.131-.446A1.832,1.832,0,0,0,28.491-7a2.6,2.6,0,0,0-.542,1.739v4.237a1.055,1.055,0,0,1-.342.846,1.264,1.264,0,0,1-.855.295,1.228,1.228,0,0,1-.845-.295,1.07,1.07,0,0,1-.333-.846V-8.379a1,1,0,0,1,.342-.817,1.29,1.29,0,0,1,.855-.285,1.178,1.178,0,0,1,.808.275.994.994,0,0,1,.313.788v.456A2.978,2.978,0,0,1,29.061-9.12a3.455,3.455,0,0,1,1.681-.4,2.722,2.722,0,0,1,2.793,1.748A3.14,3.14,0,0,1,34.77-9.044,3.6,3.6,0,0,1,36.613-9.519ZM48.944-2.546a.639.639,0,0,1,.522.247,1.028,1.028,0,0,1,.2.665,1.152,1.152,0,0,1-.7.988,6.352,6.352,0,0,1-1.463.58,6.032,6.032,0,0,1-1.558.219A4.841,4.841,0,0,1,42.389-1.14a4.736,4.736,0,0,1-1.311-3.534,5.422,5.422,0,0,1,.57-2.527,4.145,4.145,0,0,1,1.605-1.71A4.547,4.547,0,0,1,45.6-9.519a4.21,4.21,0,0,1,2.185.551A3.736,3.736,0,0,1,49.229-7.41a5.17,5.17,0,0,1,.513,2.375q0,.817-.722.817h-5.6a2.989,2.989,0,0,0,.741,1.929,2.494,2.494,0,0,0,1.824.617,3.459,3.459,0,0,0,1.074-.152,10.6,10.6,0,0,0,1.054-.418A2.1,2.1,0,0,1,48.944-2.546Zm-3.287-5.3a2.039,2.039,0,0,0-1.549.608,2.871,2.871,0,0,0-.693,1.748h4.294a2.709,2.709,0,0,0-.57-1.757A1.88,1.88,0,0,0,45.657-7.847Zm17.86-.931a1.051,1.051,0,0,1,.389-.513.99.99,0,0,1,.561-.171,1.2,1.2,0,0,1,.789.295.917.917,0,0,1,.351.731.965.965,0,0,1-.1.437L62.377-.646a1.142,1.142,0,0,1-.465.551,1.312,1.312,0,0,1-.694.19,1.279,1.279,0,0,1-.674-.19,1.142,1.142,0,0,1-.465-.551L57.817-6.08,55.632-.646a1.142,1.142,0,0,1-.465.551,1.312,1.312,0,0,1-.694.19,1.328,1.328,0,0,1-.684-.19,1.127,1.127,0,0,1-.475-.551L50.2-8a1.207,1.207,0,0,1-.095-.418.944.944,0,0,1,.38-.75,1.284,1.284,0,0,1,.836-.313,1.067,1.067,0,0,1,.589.171,1.03,1.03,0,0,1,.4.513L54.549-3l2.3-5.738a1.142,1.142,0,0,1,.437-.542,1.149,1.149,0,0,1,.627-.181,1.149,1.149,0,0,1,.627.181,1.142,1.142,0,0,1,.437.542l2.318,5.757Zm7.22,8.93a5.112,5.112,0,0,1-2.5-.589,4.075,4.075,0,0,1-1.663-1.691,5.361,5.361,0,0,1-.589-2.565,5.305,5.305,0,0,1,.589-2.555A4.09,4.09,0,0,1,68.239-8.93a5.112,5.112,0,0,1,2.5-.589,5.112,5.112,0,0,1,2.5.589,4.03,4.03,0,0,1,1.653,1.682,5.376,5.376,0,0,1,.58,2.555,5.433,5.433,0,0,1-.58,2.565A4.017,4.017,0,0,1,73.235-.437,5.112,5.112,0,0,1,70.737.152Zm-.019-1.843a2.129,2.129,0,0,0,1.767-.76,3.531,3.531,0,0,0,.608-2.242,3.538,3.538,0,0,0-.608-2.233,2.1,2.1,0,0,0-1.748-.77,2.123,2.123,0,0,0-1.757.77,3.5,3.5,0,0,0-.618,2.233,3.531,3.531,0,0,0,.608,2.242A2.108,2.108,0,0,0,70.718-1.691Zm11.324-7.79a1.023,1.023,0,0,1,.779.209.928.928,0,0,1,.285.741,1.035,1.035,0,0,1-.247.76,1.517,1.517,0,0,1-.893.323l-.57.057a2.309,2.309,0,0,0-1.644.76,2.485,2.485,0,0,0-.522,1.615v3.99a1.055,1.055,0,0,1-.342.846,1.264,1.264,0,0,1-.855.295,1.228,1.228,0,0,1-.846-.295,1.07,1.07,0,0,1-.332-.846V-8.379a1.017,1.017,0,0,1,.332-.817,1.226,1.226,0,0,1,.826-.285,1.143,1.143,0,0,1,.8.275,1.01,1.01,0,0,1,.3.788v.76a2.812,2.812,0,0,1,1.074-1.292,3.291,3.291,0,0,1,1.586-.513Zm9.785,7.638a1.1,1.1,0,0,1,.38.817,1.121,1.121,0,0,1-.314.779A.964.964,0,0,1,91.162.1a1.116,1.116,0,0,1-.779-.342L85.937-4.275v3.249a1.026,1.026,0,0,1-.342.836A1.29,1.29,0,0,1,84.74.1a1.253,1.253,0,0,1-.846-.285,1.04,1.04,0,0,1-.332-.836V-12.369a1.04,1.04,0,0,1,.332-.836,1.253,1.253,0,0,1,.846-.285,1.29,1.29,0,0,1,.855.285,1.026,1.026,0,0,1,.342.836v7.144L90-9.12a1.073,1.073,0,0,1,.779-.342,1.04,1.04,0,0,1,.76.323,1.04,1.04,0,0,1,.323.76,1.108,1.108,0,0,1-.361.8L88.521-4.807Z" transform="translate(1.119 18.845)" fill="#0f2641" opacity="0.9"/>
        <path id="Path_12092" data-name="Path 12092" d="M0,0,4.28,4.28,0,8.561" transform="translate(100.59 9.096)" fill="none" stroke="#00b2f4" stroke-linecap="round" stroke-linejoin="round" stroke-width="2" opacity="0.9"/>
      </g>
      <g id="Group_11863" data-name="Group 11863" transform="translate(12.841 40.664)">
        <g id="Group_7575" data-name="Group 7575" transform="translate(0)">
          <g id="Group_7570" data-name="Group 7570" transform="translate(3.143 2.245)">
            <path id="Path_12090" data-name="Path 12090" d="M232.026,398.041c22.146,0,40.163-17.625,40.163-39.288s-18.017-39.289-40.163-39.289-40.163,17.625-40.163,39.289S209.88,398.041,232.026,398.041Zm0-74.11c19.628,0,35.6,15.621,35.6,34.821s-15.968,34.821-35.6,34.821-35.6-15.62-35.6-34.821S212.4,323.931,232.026,323.931Z" transform="translate(-191.863 -319.464)" fill="#0f2641" opacity="0.2"/>
          </g>
          <g id="Group_7571" data-name="Group 7571">
            <path id="Path_12091" data-name="Path 12091" d="M236.6,397.933a42.95,42.95,0,0,0,39.347-25.1,4.444,4.444,0,0,0-2.391-5.908,4.664,4.664,0,0,0-6.072,2.327,33.713,33.713,0,0,1-30.884,19.7c-18.561,0-33.661-14.693-33.661-32.754s15.1-32.754,33.661-32.754a4.492,4.492,0,1,0,0-8.98c-23.65,0-42.89,18.722-42.89,41.734S212.95,397.933,236.6,397.933Z" transform="translate(-193.71 -314.464)" fill="#00b2f4"/>
          </g>
        </g>
        <path id="Path_27269" data-name="Path 27269" d="M-4.56.128a3.435,3.435,0,0,1-3-1.472A7.442,7.442,0,0,1-8.592-5.632a7.476,7.476,0,0,1,1.032-4.3,3.435,3.435,0,0,1,3-1.472,3.441,3.441,0,0,1,3,1.464,7.436,7.436,0,0,1,1.032,4.3,7.476,7.476,0,0,1-1.032,4.3A3.435,3.435,0,0,1-4.56.128Zm0-1.328A1.915,1.915,0,0,0-2.752-2.272a7.468,7.468,0,0,0,.576-3.376,7.414,7.414,0,0,0-.576-3.368A1.917,1.917,0,0,0-4.56-10.08,1.917,1.917,0,0,0-6.368-9.016a7.414,7.414,0,0,0-.576,3.368A7.475,7.475,0,0,0-6.368-2.28,1.913,1.913,0,0,0-4.56-1.2ZM5.072-7.136a3.78,3.78,0,0,1,1.864.448A3.149,3.149,0,0,1,8.192-5.424,3.826,3.826,0,0,1,8.64-3.552a3.646,3.646,0,0,1-.5,1.9A3.417,3.417,0,0,1,6.76-.352,4.341,4.341,0,0,1,4.72.112,5.8,5.8,0,0,1,2.776-.224a4.529,4.529,0,0,1-1.592-.928.818.818,0,0,1-.32-.64.757.757,0,0,1,.16-.488.478.478,0,0,1,.384-.2.7.7,0,0,1,.264.048,1.445,1.445,0,0,1,.28.16,5.4,5.4,0,0,0,1.32.776,3.754,3.754,0,0,0,1.4.264,2.413,2.413,0,0,0,1.744-.6A2.232,2.232,0,0,0,7.04-3.52a2.233,2.233,0,0,0-.632-1.664A2.3,2.3,0,0,0,4.72-5.808a3.113,3.113,0,0,0-1.232.232,3.156,3.156,0,0,0-1.024.728.815.815,0,0,1-.576.224.651.651,0,0,1-.456-.168.568.568,0,0,1-.184-.44V-10.5a.8.8,0,0,1,.2-.576.773.773,0,0,1,.584-.208h5.5a.865.865,0,0,1,.576.176.6.6,0,0,1,.208.48.614.614,0,0,1-.208.5.865.865,0,0,1-.576.176H2.88V-6.4A3.3,3.3,0,0,1,5.072-7.136Z" transform="translate(41.418 46.181)" fill="#0f2641" opacity="0.8"/>
      </g>
      <g id="Group_11864" data-name="Group 11864" transform="translate(0 139.114)">
        <g id="Group_7577" data-name="Group 7577" transform="translate(0 28.893)">
          <circle id="Ellipse_384" data-name="Ellipse 384" cx="3.5" cy="3.5" r="3.5" transform="translate(0.259 6.838)" fill="#00b2f4"/>
          <path id="Path_27271" data-name="Path 27271" d="M.924-4.55C.924-1.974,1.61.126,4.242.126s3.3-2.1,3.3-4.676c0-2.6-.672-4.7-3.3-4.7S.924-7.154.924-4.55Zm1.26,0c0-1.9.42-3.444,2.058-3.444S6.3-6.454,6.3-4.55,5.88-1.12,4.242-1.12,2.184-2.66,2.184-4.55ZM14.42-1.876h1.316v-1.19H14.42V-9.142h-.938L8.414-1.876h4.76V0H14.42Zm-3.864-1.19,2.618-3.808v3.808Zm16.828.714A3.465,3.465,0,0,1,24.71-1.12,3.587,3.587,0,0,1,21.126-4.8,3.6,3.6,0,0,1,24.71-8.5a3.583,3.583,0,0,1,2.646,1.19l.98-.812A4.676,4.676,0,0,0,24.71-9.758,4.906,4.906,0,0,0,19.824-4.8,4.885,4.885,0,0,0,24.71.14a4.69,4.69,0,0,0,3.654-1.666ZM32.326.14a3.34,3.34,0,0,0,3.43-3.43,3.305,3.305,0,0,0-3.43-3.388A3.294,3.294,0,0,0,28.91-3.29,3.329,3.329,0,0,0,32.326.14Zm0-1.232a2.1,2.1,0,0,1-2.156-2.2,2.069,2.069,0,0,1,2.156-2.142A2.085,2.085,0,0,1,34.482-3.29,2.115,2.115,0,0,1,32.326-1.092Zm12.222-4.34c.952,0,1.5.658,1.5,1.736V0H47.32V-3.78c0-1.848-.882-2.9-2.52-2.9a2.425,2.425,0,0,0-2.268,1.344,2.083,2.083,0,0,0-1.708-1.274,2.972,2.972,0,0,0-.714-.042A2.277,2.277,0,0,0,38.3-5.558v-.98H37.03V0H38.3V-3.528a1.731,1.731,0,0,1,1.82-1.9c.854,0,1.414.644,1.414,1.722V0h1.274V-3.528A1.731,1.731,0,0,1,44.548-5.432Zm5.67-1.106H48.944V3.178h1.274V-.98A2.622,2.622,0,0,0,52.5.14a3.222,3.222,0,0,0,3.276-3.388A3.258,3.258,0,0,0,52.5-6.678a2.655,2.655,0,0,0-2.282,1.162Zm.014,3.3a2.087,2.087,0,0,1,2.142-2.2,2.1,2.1,0,0,1,2.114,2.2,2.04,2.04,0,0,1-2.114,2.128A2.074,2.074,0,0,1,50.232-3.234Zm6.818-6.86V0h1.274V-10.094ZM60.872-3.78a1.972,1.972,0,0,1,2.072-1.75,1.9,1.9,0,0,1,1.988,1.75Zm5.32.49a3.162,3.162,0,0,0-3.248-3.388A3.238,3.238,0,0,0,59.6-3.29,3.273,3.273,0,0,0,62.944.14,3.208,3.208,0,0,0,65.954-1.6c-.35-.154-.756-.266-1.092-.42a2.1,2.1,0,0,1-1.876,1.008,2.008,2.008,0,0,1-2.114-1.778h5.306C66.192-2.94,66.192-3.136,66.192-3.29ZM69.16-6.538V-9H67.886v2.464H66.71V-5.46h1.176V0H69.16V-5.46h1.386V-6.538ZM72.31-3.78a1.972,1.972,0,0,1,2.072-1.75A1.9,1.9,0,0,1,76.37-3.78Zm5.32.49a3.162,3.162,0,0,0-3.248-3.388A3.238,3.238,0,0,0,71.036-3.29,3.273,3.273,0,0,0,74.382.14,3.208,3.208,0,0,0,77.392-1.6c-.35-.154-.756-.266-1.092-.42a2.1,2.1,0,0,1-1.876,1.008A2.008,2.008,0,0,1,72.31-2.786h5.306C77.63-2.94,77.63-3.136,77.63-3.29ZM84,0h1.274V-10.094H84v4.536a2.606,2.606,0,0,0-2.31-1.12,3.237,3.237,0,0,0-3.29,3.4A3.268,3.268,0,0,0,81.7.14,2.7,2.7,0,0,0,84-1.008Zm-.014-3.29a2.09,2.09,0,0,1-2.17,2.184A2.1,2.1,0,0,1,79.7-3.29a2.059,2.059,0,0,1,2.114-2.142A2.1,2.1,0,0,1,83.986-3.29Z" transform="translate(16.259 13.838)" fill="#0f2641" opacity="0.7"/>
        </g>
        <g id="Group_7578" data-name="Group 7578" transform="translate(0 0)">
          <circle id="Ellipse_384-2" data-name="Ellipse 384" cx="3.5" cy="3.5" r="3.5" transform="translate(0.259 6.73)" fill="#0f2641" opacity="0.2"/>
          <path id="Path_27270" data-name="Path 27270" d="M.99-4.875c0,2.76.735,5.01,3.555,5.01s3.54-2.25,3.54-5.01c0-2.79-.72-5.04-3.54-5.04S.99-7.665.99-4.875Zm1.35,0c0-2.04.45-3.69,2.2-3.69S6.75-6.915,6.75-4.875,6.3-1.2,4.545-1.2,2.34-2.85,2.34-4.875ZM10.845,0h1.35V-9.885L9.255-8.82v1.29l1.59-.555ZM17.37-5.145A5.212,5.212,0,0,0,22.59.15a5.228,5.228,0,0,0,5.25-5.3,5.25,5.25,0,0,0-5.25-5.31A5.234,5.234,0,0,0,17.37-5.145Zm1.4,0a3.853,3.853,0,0,1,3.825-3.96,3.856,3.856,0,0,1,3.84,3.96A3.843,3.843,0,0,1,22.59-1.2,3.84,3.84,0,0,1,18.765-5.145Zm9.615-1.86L31.29,0h1.3L35.52-7.005H34.065L31.95-1.74,29.82-7.005ZM37.2-4.05a2.112,2.112,0,0,1,2.22-1.875A2.037,2.037,0,0,1,41.55-4.05Zm5.7.525a3.388,3.388,0,0,0-3.48-3.63,3.469,3.469,0,0,0-3.585,3.63A3.507,3.507,0,0,0,39.42.15a3.437,3.437,0,0,0,3.225-1.86c-.375-.165-.81-.285-1.17-.45a2.253,2.253,0,0,1-2.01,1.08A2.151,2.151,0,0,1,37.2-2.985h5.685C42.9-3.15,42.9-3.36,42.9-3.525Zm2.655.975c0-1.86.57-3.3,1.92-3.3a2.437,2.437,0,0,1,1.035.24l.21-1.275a2.6,2.6,0,0,0-1.215-.27c-.915,0-1.59.48-1.95,1.725V-7.005H44.19V0h1.365ZM55.02,0h1.365V-10.815H55.02v4.86a2.792,2.792,0,0,0-2.475-1.2A3.468,3.468,0,0,0,49.02-3.51,3.5,3.5,0,0,0,52.56.15a2.9,2.9,0,0,0,2.46-1.23ZM55-3.525a2.239,2.239,0,0,1-2.325,2.34,2.244,2.244,0,0,1-2.265-2.34,2.206,2.206,0,0,1,2.265-2.3A2.25,2.25,0,0,1,55-3.525Zm7.995.3a1.854,1.854,0,0,1-1.98,2.04c-.96,0-1.53-.675-1.53-1.86v-3.96H58.125v4.05C58.11-.975,59.07.15,60.825.15A2.464,2.464,0,0,0,63-1.05V0h1.365V-7.005H63Zm4.1-.825a2.112,2.112,0,0,1,2.22-1.875,2.037,2.037,0,0,1,2.13,1.875Zm5.7.525a3.388,3.388,0,0,0-3.48-3.63,3.469,3.469,0,0,0-3.585,3.63A3.507,3.507,0,0,0,69.315.15,3.437,3.437,0,0,0,72.54-1.71c-.375-.165-.81-.285-1.17-.45a2.253,2.253,0,0,1-2.01,1.08,2.151,2.151,0,0,1-2.265-1.905H72.78C72.795-3.15,72.795-3.36,72.795-3.525Z" transform="translate(16.259 14.73)" fill="#0f2641" opacity="0.7"/>
        </g>
      </g>
    </g>
  </g>
</svg>
