<svg xmlns="http://www.w3.org/2000/svg" xmlns:xlink="http://www.w3.org/1999/xlink" width="290" height="409" viewBox="0 0 290 409">
  <defs>
    <linearGradient id="linear-gradient" x1="0.5" x2="0.5" y2="1" gradientUnits="objectBoundingBox">
      <stop offset="0" stop-color="#e8f2ff"/>
      <stop offset="1" stop-color="#fff" stop-opacity="0.51"/>
    </linearGradient>
    <filter id="Rectangle_2726" x="0" y="0" width="279" height="409" filterUnits="userSpaceOnUse">
      <feOffset dy="3" input="SourceAlpha"/>
      <feGaussianBlur stdDeviation="18" result="blur"/>
      <feFlood flood-color="#247cff" flood-opacity="0.2"/>
      <feComposite operator="in" in2="blur"/>
      <feComposite in="SourceGraphic"/>
    </filter>
    <filter id="bc976de991f4895a7e1c444b90895f77" x="71" y="181" width="219" height="120" filterUnits="userSpaceOnUse">
      <feOffset dy="10" input="SourceAlpha"/>
      <feGaussianBlur stdDeviation="10" result="blur-2"/>
      <feFlood flood-color="#e8e9ea" flood-opacity="0.6"/>
      <feComposite operator="in" in2="blur-2"/>
      <feComposite in="SourceGraphic"/>
    </filter>
    <linearGradient id="linear-gradient-2" y1="0.5" x2="1" y2="0.5" gradientUnits="objectBoundingBox">
      <stop offset="0" stop-color="#c7b299"/>
      <stop offset="1" stop-color="#998675"/>
    </linearGradient>
    <filter id="Ellipse_400" x="115.499" y="15.5" width="93" height="92" filterUnits="userSpaceOnUse">
      <feOffset dy="15" input="SourceAlpha"/>
      <feGaussianBlur stdDeviation="7.5" result="blur-3"/>
      <feFlood flood-color="#c0dde8" flood-opacity="0.502"/>
      <feComposite operator="in" in2="blur-3"/>
      <feComposite in="SourceGraphic"/>
    </filter>
    <filter id="Ellipse_606" x="171.5" y="276.5" width="93" height="93" filterUnits="userSpaceOnUse">
      <feOffset dy="15" input="SourceAlpha"/>
      <feGaussianBlur stdDeviation="7.5" result="blur-4"/>
      <feFlood flood-color="#c0dde8" flood-opacity="0.502"/>
      <feComposite operator="in" in2="blur-4"/>
      <feComposite in="SourceGraphic"/>
    </filter>
  </defs>
  <g id="Group_15286" data-name="Group 15286" transform="translate(-903 -150)">
    <g id="Group_11891" data-name="Group 11891" transform="translate(26 2)">
      <g transform="matrix(1, 0, 0, 1, 877, 148)" filter="url(#Rectangle_2726)">
        <path id="Rectangle_2726-2" data-name="Rectangle 2726" d="M30,0H141a30,30,0,0,1,30,30V301a0,0,0,0,1,0,0H0a0,0,0,0,1,0,0V30A30,30,0,0,1,30,0Z" transform="translate(54 51)" fill="url(#linear-gradient)"/>
      </g>
      <g id="Group_11890" data-name="Group 11890">
        <g id="Group_7691" data-name="Group 7691" transform="translate(942 214.5)">
          <text id="Period_1" data-name="Period 1" transform="translate(10 20)" fill="#0f2641" font-size="14" font-family="SofiaPro, Sofia Pro" letter-spacing="-0.03em" opacity="0.5"><tspan x="0" y="0">Period 1</tspan></text>
          <text id="English" transform="translate(10 51)" fill="#0f2641" font-size="16" font-family="SofiaPro, Sofia Pro" letter-spacing="-0.03em"><tspan x="0" y="16">English</tspan></text>
          <g id="Group_2414" data-name="Group 2414" transform="translate(10 76.525)">
            <text id="_8:00_-_8:30_AM" data-name="8:00 - 8:30 AM" transform="translate(14 14.475)" fill="#0f2641" font-size="15" font-family="SofiaPro-Light, Sofia Pro" font-weight="300" letter-spacing="-0.03em" opacity="0.8"><tspan x="0" y="0">8:00 - 8:30 AM</tspan></text>
            <g id="Icon_feather-clock" data-name="Icon feather-clock" transform="translate(0 5)">
              <path id="Path_2359" data-name="Path 2359" d="M12,7.5A4.5,4.5,0,1,1,7.5,3,4.5,4.5,0,0,1,12,7.5Z" transform="translate(-3 -3)" fill="none" stroke="#32c1f6" stroke-linecap="round" stroke-linejoin="round" stroke-width="1"/>
              <path id="Path_2360" data-name="Path 2360" d="M18,9v2.7l1.8.9" transform="translate(-13.5 -7.2)" fill="none" stroke="#32c1f6" stroke-linecap="round" stroke-linejoin="round" stroke-width="1"/>
            </g>
          </g>
          <g id="_004-filter" data-name="004-filter" transform="translate(106.5 10)" opacity="0.2">
            <path id="Path_12159" data-name="Path 12159" d="M53.318,0H29.682A4.651,4.651,0,0,0,25,4.609V31.391A4.651,4.651,0,0,0,29.682,36H53.318A4.651,4.651,0,0,0,58,31.391V4.609A4.651,4.651,0,0,0,53.318,0Zm2.54,31.391a2.523,2.523,0,0,1-2.54,2.5H29.682a2.523,2.523,0,0,1-2.539-2.5V4.609a2.523,2.523,0,0,1,2.539-2.5H53.318a2.523,2.523,0,0,1,2.54,2.5Z" transform="translate(-25 0)" fill="#c66cff"/>
            <path id="Path_12160" data-name="Path 12160" d="M288.171,70.184A1.075,1.075,0,0,0,290,69.438a1.043,1.043,0,0,0-.314-.746l-3.429-3.375a1.083,1.083,0,0,0-1.458-.052c-.045.038.2-.2-3.485,3.427a1.043,1.043,0,0,0,0,1.492,1.084,1.084,0,0,0,1.515,0l1.6-1.575V88.267l-1.6-1.575a1.084,1.084,0,0,0-1.515,0,1.043,1.043,0,0,0,0,1.492l3.423,3.369a1.084,1.084,0,0,0,1.521.006l3.429-3.375a1.043,1.043,0,0,0,.314-.746,1.075,1.075,0,0,0-1.829-.746l-1.6,1.575V68.609Z" transform="translate(-262.714 -60.438)" fill="#c66cff"/>
            <path id="Path_12161" data-name="Path 12161" d="M102.8,66.723a1.312,1.312,0,0,0-2.423-.027c-.008.021.165-.427-3.848,9.946A1.05,1.05,0,0,0,97.145,78a1.076,1.076,0,0,0,1.383-.61l.693-1.792h4.689l.686,1.789a1.071,1.071,0,0,0,1,.683,1.058,1.058,0,0,0,1-1.427Zm-2.759,6.769,1.539-3.978,1.525,3.978Z" transform="translate(-91.351 -61.267)" fill="#c66cff"/>
            <path id="Path_12162" data-name="Path 12162" d="M113.671,283.125h-4.885l5.623-8.495a1.055,1.055,0,0,0-.9-1.63h-6.491a1.055,1.055,0,1,0,0,2.109h4.514l-5.623,8.495a1.055,1.055,0,0,0,.9,1.63h6.862a1.055,1.055,0,1,0,0-2.109Z" transform="translate(-99.97 -253.805)" fill="#c66cff"/>
          </g>
        </g>
      </g>
    </g>
    <g id="Group_11962" data-name="Group 11962" transform="translate(15080 13402.566)">
      <g transform="matrix(1, 0, 0, 1, -14177, -13252.57)" filter="url(#bc976de991f4895a7e1c444b90895f77)">
        <rect id="bc976de991f4895a7e1c444b90895f77-2" data-name="bc976de991f4895a7e1c444b90895f77" width="159" height="60" rx="10" transform="translate(101 201)" fill="rgba(255,255,255,0.49)"/>
      </g>
      <path id="Path_27273" data-name="Path 27273" d="M1.332,0h.81V-5.931L.378-5.292v.774l.954-.333ZM7.353-5.877H3.294v.8H5.985L3.186,0h.945Zm7.254,4.365a2.228,2.228,0,0,1-1.719.792,2.306,2.306,0,0,1-2.3-2.367,2.314,2.314,0,0,1,2.3-2.376,2.3,2.3,0,0,1,1.7.765l.63-.522a3.006,3.006,0,0,0-2.331-1.053A3.154,3.154,0,0,0,9.747-3.087,3.14,3.14,0,0,0,12.888.09,3.015,3.015,0,0,0,15.237-.981Zm2.079-.756a1.187,1.187,0,0,1,1.278-1.224,1,1,0,0,1,.99,1.116V0h.819V-2.43a1.633,1.633,0,0,0-1.7-1.863,1.6,1.6,0,0,0-1.386.72V-6.489h-.819V0h.819ZM24.147,0h.81V-4.2h-.81v.63a1.712,1.712,0,0,0-1.476-.72,2.1,2.1,0,0,0-2.133,2.187A2.108,2.108,0,0,0,22.671.09a1.737,1.737,0,0,0,1.476-.738Zm-.009-2.115a1.344,1.344,0,0,1-1.4,1.4,1.354,1.354,0,0,1-1.368-1.4,1.331,1.331,0,0,1,1.368-1.377A1.35,1.35,0,0,1,24.138-2.115ZM26.874-4.2h-.819V2.043h.819V-.63a1.685,1.685,0,0,0,1.467.72,2.071,2.071,0,0,0,2.106-2.178,2.094,2.094,0,0,0-2.106-2.205,1.707,1.707,0,0,0-1.467.747Zm.009,2.124A1.342,1.342,0,0,1,28.26-3.492a1.349,1.349,0,0,1,1.359,1.413A1.311,1.311,0,0,1,28.26-.711,1.333,1.333,0,0,1,26.883-2.079ZM32.4-4.2V-5.787h-.819V-4.2h-.756v.693h.756V0H32.4V-3.51h.891V-4.2ZM34.425-2.43a1.267,1.267,0,0,1,1.332-1.125A1.222,1.222,0,0,1,37.035-2.43Zm3.42.315a2.033,2.033,0,0,0-2.088-2.178,2.082,2.082,0,0,0-2.151,2.178A2.1,2.1,0,0,0,35.757.09a2.062,2.062,0,0,0,1.935-1.116c-.225-.1-.486-.171-.7-.27a1.352,1.352,0,0,1-1.206.648,1.291,1.291,0,0,1-1.359-1.143h3.411C37.845-1.89,37.845-2.016,37.845-2.115Zm1.593.585c0-1.116.342-1.98,1.152-1.98a1.462,1.462,0,0,1,.621.144l.126-.765a1.557,1.557,0,0,0-.729-.162c-.549,0-.954.288-1.17,1.035V-4.2h-.819V0h.819Zm3.96-.189c.315.072.567.216.558.531s-.252.522-.639.549a1.077,1.077,0,0,1-.666-.144.628.628,0,0,1-.342-.477h-.747A1.473,1.473,0,0,0,43.128.09c.873,0,1.629-.468,1.629-1.26a1.221,1.221,0,0,0-1.089-1.224l-.621-.153a.738.738,0,0,1-.495-.324.462.462,0,0,1-.009-.333.614.614,0,0,1,.63-.378.6.6,0,0,1,.657.477h.783a1.305,1.305,0,0,0-1.458-1.188A1.377,1.377,0,0,0,41.7-3.222c-.072.783.36,1.161,1.125,1.368Z" transform="translate(-14018 -13009.566)" fill="#0f2641" opacity="0.6"/>
      <path id="Path_27272" data-name="Path 27272" d="M8.177-9.23a.638.638,0,0,1,.481.189.673.673,0,0,1,.182.487V-.611a.673.673,0,0,1-.182.487.638.638,0,0,1-.481.189A.65.65,0,0,1,7.7-.117a.668.668,0,0,1-.182-.494v-3.5H2.392v3.5a.673.673,0,0,1-.182.487.638.638,0,0,1-.481.189.65.65,0,0,1-.481-.182.668.668,0,0,1-.182-.494V-8.554a.673.673,0,0,1,.182-.487.638.638,0,0,1,.481-.189.638.638,0,0,1,.481.189.673.673,0,0,1,.182.487V-5.2H7.514V-8.554A.673.673,0,0,1,7.7-9.042.638.638,0,0,1,8.177-9.23Zm2.912,9.3a.719.719,0,0,1-.474-.156.572.572,0,0,1-.189-.468V-5.837a.592.592,0,0,1,.189-.475.7.7,0,0,1,.474-.162.676.676,0,0,1,.468.162.6.6,0,0,1,.182.475V-.559a.583.583,0,0,1-.182.468A.694.694,0,0,1,11.089.065Zm0-7.813a.837.837,0,0,1-.6-.208A.715.715,0,0,1,10.27-8.5a.694.694,0,0,1,.221-.539.854.854,0,0,1,.6-.2.859.859,0,0,1,.592.2.685.685,0,0,1,.227.539.715.715,0,0,1-.221.546A.837.837,0,0,1,11.089-7.748Zm4.3,7.839a3.934,3.934,0,0,1-2.171-.546.988.988,0,0,1-.332-.3.649.649,0,0,1-.1-.351.536.536,0,0,1,.117-.351.369.369,0,0,1,.3-.143,1.282,1.282,0,0,1,.533.208,5.469,5.469,0,0,0,.76.338,2.841,2.841,0,0,0,.93.13,1.825,1.825,0,0,0,.975-.221.7.7,0,0,0,.351-.624.609.609,0,0,0-.137-.416,1.157,1.157,0,0,0-.474-.279,8.1,8.1,0,0,0-1-.266A3.857,3.857,0,0,1,13.5-3.4,1.426,1.426,0,0,1,13-4.55a1.675,1.675,0,0,1,.325-1.007,2.111,2.111,0,0,1,.9-.7,3.25,3.25,0,0,1,1.3-.247,3.79,3.79,0,0,1,1.014.136,2.864,2.864,0,0,1,.871.4.806.806,0,0,1,.429.663.518.518,0,0,1-.124.351.375.375,0,0,1-.292.143.572.572,0,0,1-.234-.052,3.087,3.087,0,0,1-.312-.169,4.367,4.367,0,0,0-.657-.325,2.142,2.142,0,0,0-.76-.117,1.492,1.492,0,0,0-.877.234.739.739,0,0,0-.332.637.64.64,0,0,0,.306.565,3.745,3.745,0,0,0,1.151.384,6.3,6.3,0,0,1,1.365.416,1.617,1.617,0,0,1,.708.579,1.635,1.635,0,0,1,.215.877,1.6,1.6,0,0,1-.708,1.359A3.156,3.156,0,0,1,15.392.091ZM22.1-.936a.652.652,0,0,1,.41.15.466.466,0,0,1,.123.345.449.449,0,0,1-.2.4.941.941,0,0,1-.591.111L21.489.039A2.276,2.276,0,0,1,19.916-.6a2.389,2.389,0,0,1-.52-1.671V-5.33h-.78q-.572,0-.572-.507a.477.477,0,0,1,.149-.371.6.6,0,0,1,.423-.136h.78V-7.683a.619.619,0,0,1,.176-.468.655.655,0,0,1,.474-.169.679.679,0,0,1,.481.169.607.607,0,0,1,.182.468v1.339H22a.6.6,0,0,1,.423.136.477.477,0,0,1,.149.371.473.473,0,0,1-.149.377A.624.624,0,0,1,22-5.33H20.709v3.146a1.328,1.328,0,0,0,.253.9,1.1,1.1,0,0,0,.774.325ZM25.948.091a3.268,3.268,0,0,1-1.645-.4,2.719,2.719,0,0,1-1.092-1.151A3.751,3.751,0,0,1,22.828-3.2a3.781,3.781,0,0,1,.384-1.749A2.719,2.719,0,0,1,24.3-6.1a3.268,3.268,0,0,1,1.645-.4,3.268,3.268,0,0,1,1.645.4,2.719,2.719,0,0,1,1.092,1.15A3.781,3.781,0,0,1,29.068-3.2a3.751,3.751,0,0,1-.383,1.736A2.719,2.719,0,0,1,27.593-.312,3.268,3.268,0,0,1,25.948.091Zm0-1.04a1.612,1.612,0,0,0,1.333-.572A2.622,2.622,0,0,0,27.742-3.2a2.6,2.6,0,0,0-.468-1.671,1.608,1.608,0,0,0-1.326-.579,1.608,1.608,0,0,0-1.326.579A2.6,2.6,0,0,0,24.154-3.2a2.622,2.622,0,0,0,.462,1.677A1.612,1.612,0,0,0,25.948-.949Zm7.514-5.525q.624-.039.624.533a.583.583,0,0,1-.143.429.771.771,0,0,1-.494.169l-.39.039a1.683,1.683,0,0,0-1.215.572,1.851,1.851,0,0,0-.4,1.2V-.559a.583.583,0,0,1-.182.468A.694.694,0,0,1,30.8.065a.719.719,0,0,1-.475-.156.572.572,0,0,1-.188-.468V-5.85a.576.576,0,0,1,.188-.462.7.7,0,0,1,.475-.162.617.617,0,0,1,.435.162.581.581,0,0,1,.176.449v.624a1.91,1.91,0,0,1,.754-.871,2.533,2.533,0,0,1,1.118-.351Zm5.941.39a.567.567,0,0,1,.227-.286.6.6,0,0,1,.319-.091.633.633,0,0,1,.436.169.524.524,0,0,1,.188.4.6.6,0,0,1-.052.247l-3.614,7.67a.61.61,0,0,1-.227.28.573.573,0,0,1-.319.1.646.646,0,0,1-.423-.156.486.486,0,0,1-.188-.39.708.708,0,0,1,.065-.26l.9-1.911L34.2-5.642a.516.516,0,0,1-.052-.234.517.517,0,0,1,.208-.416.723.723,0,0,1,.468-.169.576.576,0,0,1,.559.364L37.4-1.625Z" transform="translate(-14018 -13024.566)" fill="#0f2641"/>
      <path id="Path_19555" data-name="Path 19555" d="M0,0,3.626,3.626,0,7.252" transform="translate(-13940.857 -13025.107)" fill="none" stroke="#3abc00" stroke-linecap="round" stroke-linejoin="round" stroke-width="2" opacity="0.9"/>
      <g id="Group_11727" data-name="Group 11727" transform="translate(-14063.913 -13039.913)">
        <rect id="Rectangle_5043" data-name="Rectangle 5043" width="36" height="36" rx="18" transform="translate(-0.087 0.346)" fill="url(#linear-gradient-2)"/>
        <g id="Group_11726" data-name="Group 11726" transform="translate(6.973 6.508)">
          <path id="Path_19577" data-name="Path 19577" d="M2519.786,859.636h-9.039v1.291h1.292v.646a3.228,3.228,0,1,0,6.456,0v-.646h1.292Zm0,0" transform="translate(-2504.11 -854.522)" fill="#fffdfa"/>
          <path id="Path_19578" data-name="Path 19578" d="M2515.266,887.413a3.232,3.232,0,0,0-3.228,3.228v.646h-1.292v1.291h9.039v-1.291h-1.292v-.646a3.232,3.232,0,0,0-3.228-3.228Zm0,0" transform="translate(-2504.11 -875.843)" fill="#fffdfa"/>
          <path id="Path_19579" data-name="Path 19579" d="M2511.131,884.141a11.034,11.034,0,0,0,4.43.918,11.157,11.157,0,0,0,11.157-11.157,11.04,11.04,0,0,0-.688-3.854v0" transform="translate(-2504.404 -862.513)" fill="none" stroke="#fffdfa" stroke-width="7"/>
          <path id="Path_19580" data-name="Path 19580" d="M2482.526,851.51a11.161,11.161,0,0,1,14.174-13.36" transform="translate(-2482.191 -837.636)" fill="none" stroke="#fffdfa" stroke-width="7"/>
          <circle id="Ellipse_656" data-name="Ellipse 656" cx="1.859" cy="1.859" r="1.859" transform="translate(16.968 1.162)" fill="#e2ccb3"/>
          <circle id="Ellipse_657" data-name="Ellipse 657" cx="1.859" cy="1.859" r="1.859" transform="translate(0.93 16.735)" fill="#e2ccb3"/>
        </g>
      </g>
    </g>
    <g id="Group_11887" data-name="Group 11887" transform="translate(1001.545 -1107)">
      <rect id="Rectangle_296" data-name="Rectangle 296" width="94" height="71" rx="10" transform="translate(16.454 1281)" fill="#593ea4" opacity="0"/>
      <g transform="matrix(1, 0, 0, 1, -98.54, 1257)" filter="url(#Ellipse_400)">
        <ellipse id="Ellipse_400-2" data-name="Ellipse 400" cx="24" cy="23.5" rx="24" ry="23.5" transform="translate(138 23)" fill="#fff"/>
      </g>
      <g id="Group_11705" data-name="Group 11705" transform="translate(50.364 1290.636)">
        <g id="Group_11704" data-name="Group 11704" transform="translate(0 0)">
          <path id="Path_19569" data-name="Path 19569" d="M192.316,287.858h-8.745v-7.754a4.3,4.3,0,0,1,4.272-4.275h2.713a4.234,4.234,0,0,1,2.179.6l.665.4-.327.653a2.623,2.623,0,0,0-.155.89v.509a2.776,2.776,0,0,0,.606,1.724l.549.685-.713.513a3.69,3.69,0,0,0-1.531,2.979Zm7.819-.006-.84-.815V284.77a3.686,3.686,0,0,0-1.526-2.97l-.711-.513.548-.685a2.77,2.77,0,0,0,.605-1.721v-.506a2.626,2.626,0,0,0-.168-.93l-.247-.654.6-.358a4.287,4.287,0,0,1,2.186-.6h2.71a4.3,4.3,0,0,1,4.275,4.271v7.75ZM189.2,275.29a3.682,3.682,0,0,1-3.689-3.38l-.1-1.123,1.1.235a3.786,3.786,0,0,0,4.316-2.321l.208-.529h1.021l.248.38a3.663,3.663,0,0,1,.593,2.018v1.008a3.7,3.7,0,0,1-3.689,3.712Zm12.648-.017a3.694,3.694,0,0,1-3.306-2.216l-.414-.937,1-.215a6.592,6.592,0,0,0,2.9-1.441l.544-.466.544.466A6.555,6.555,0,0,0,205,271.595l.706.276-.208.73a3.684,3.684,0,0,1-3.473,2.684h-.053Zm-3.616-5.215a3.722,3.722,0,0,1,3.7-3.7h.1A3.7,3.7,0,0,1,205.642,270l.026,1.465-1.272-.726a6.16,6.16,0,0,1-1.629-1.346.247.247,0,0,0-.171-.086h0a.284.284,0,0,0-.192.065,6.178,6.178,0,0,1-3.122,1.971l-1.048.278Zm-10.921.542a3.284,3.284,0,0,1-.568-.05,3.2,3.2,0,0,1-.536-.142l-.78-.278.273-.782a3.7,3.7,0,0,1,3.491-2.482v.492h.015v-.492a3.823,3.823,0,0,1,.653.059l.818.147-.144.818A3.267,3.267,0,0,1,187.312,270.6Zm-.413-5.122a2.405,2.405,0,0,1,4.541-.018l.554,1.557-1.582-.479a4.237,4.237,0,0,0-2.477.01l-1.579.494Z" transform="translate(-182.475 -262.775)" fill="#fc2828" opacity="0.1"/>
          <path id="Path_19570" data-name="Path 19570" d="M202.256,289.235v-1.674h7.431V280.4a3.718,3.718,0,0,0-3.69-3.691h-2.711a3.708,3.708,0,0,0-1.649.39,4.739,4.739,0,0,0-1.053-1.334,5.109,5.109,0,0,1,.464-.242l.313-.145-.234-.253a4.773,4.773,0,0,1-1.281-3.255v-1.519a4.8,4.8,0,1,1,9.593,0v1.52a4.763,4.763,0,0,1-1.276,3.255l-.234.253.313.144a5.407,5.407,0,0,1,3.118,4.876v8a.841.841,0,0,1-.835.834Zm2.86-18.036a7.193,7.193,0,0,1-3.159,1.568l-.3.065.124.28a3.147,3.147,0,0,0,2.858,1.873,3.11,3.11,0,0,0,3-2.253l.063-.218-.212-.083a7.142,7.142,0,0,1-2.051-1.232l-.163-.14Zm-.479-3.966a3.135,3.135,0,0,0-3.115,3.117v.808l.314-.083a5.553,5.553,0,0,0,2.806-1.765,1.132,1.132,0,0,1,.1-.094.855.855,0,0,1,.548-.2.865.865,0,0,1,.629.291,5.575,5.575,0,0,0,1.475,1.218l.382.218-.007-.439a3.124,3.124,0,0,0-3.044-3.072h-.083Z" transform="translate(-185.18 -263.058)" fill="#fc2828"/>
          <path id="Path_19571" data-name="Path 19571" d="M183.09,288.737a.84.84,0,0,1-.834-.835v-8a5.41,5.41,0,0,1,3.123-4.875l.312-.144-.233-.252a4.768,4.768,0,0,1-1.271-3.253v-1.012a4.742,4.742,0,0,1,1.217-3.187l.064-.071v-1.05a3.5,3.5,0,0,1,7,0v1.009l.065.072a4.74,4.74,0,0,1,1.25,3.222v1.014a4.78,4.78,0,0,1-1.279,3.253l-.235.253.314.144c.154.071.308.15.457.237a3.945,3.945,0,0,0-.4.384c-.083.091-.144.167-.205.243-.027.031-.053.061-.087.107s-.063.084-.091.126a3.511,3.511,0,0,0-.282.472,3.655,3.655,0,0,0-1.633-.385h-2.718a3.716,3.716,0,0,0-3.691,3.69v7.171h7.422v1.668Zm2.784-17.083a3.118,3.118,0,0,0,6.224-.282v-1.011a3.077,3.077,0,0,0-.5-1.7l-.073-.114-.193-.272-.114.272-.065.158a4.344,4.344,0,0,1-4.066,2.776,4.44,4.44,0,0,1-.914-.1l-.33-.071Zm2.849-4.4a3.12,3.12,0,0,0-2.691,2.08l-.082.235.234.083a2.718,2.718,0,0,0,.907.157,2.685,2.685,0,0,0,2.648-2.226l.043-.246-.245-.043c-.1-.018-.207-.032-.312-.04Zm.236-3.02a1.83,1.83,0,0,0-1.727,1.229l-.163.469.474-.148a4.723,4.723,0,0,1,1.414-.216,4.8,4.8,0,0,1,1.407.205l.475.144-.167-.467a1.833,1.833,0,0,0-1.713-1.216Z" transform="translate(-182.256 -262.56)" fill="#fc2828"/>
          <path id="Path_19572" data-name="Path 19572" d="M199.639,283.59l-.213-.154.164-.205a3.359,3.359,0,0,0,.735-2.085v-.507a3.213,3.213,0,0,0-.2-1.121,4.226,4.226,0,0,0-1.281-1.6,3.25,3.25,0,0,0-1.76-.51,3.167,3.167,0,0,0-1.717.5,3.852,3.852,0,0,0-.624.55c-.064.07-.118.137-.17.2l-.088.108-.071.1a3.539,3.539,0,0,0-.344.626,3.208,3.208,0,0,0-.207,1.135v.51a3.362,3.362,0,0,0,.735,2.089l.164.205-.213.154a4.28,4.28,0,0,0-1.775,3.45v4.169h1.676v0h5.284v0h1.674v-4.175A4.272,4.272,0,0,0,199.639,283.59Zm-4.088-2.958a1.547,1.547,0,1,1,3.095,0v.5a1.705,1.705,0,0,1-.466,1.165,1.44,1.44,0,0,1-2.032.128,1.511,1.511,0,0,1-.127-.126,1.7,1.7,0,0,1-.469-1.164Zm-1.1,8.9V287.04a2.583,2.583,0,0,1,2.57-2.569h.145a2.581,2.581,0,0,1,2.569,2.57v2.492Z" transform="translate(-184.004 -265.028)" fill="#fc6161"/>
        </g>
      </g>
    </g>
    <g id="Group_11894" data-name="Group 11894" transform="translate(323 76)">
      <g transform="matrix(1, 0, 0, 1, 580, 74)" filter="url(#Ellipse_606)">
        <circle id="Ellipse_606-2" data-name="Ellipse 606" cx="24" cy="24" r="24" transform="translate(194 284)" fill="#fff"/>
      </g>
      <g id="Group_10772" data-name="Group 10772" transform="translate(784.158 370.601)">
        <g id="Group_10771" data-name="Group 10771" transform="translate(0)">
          <g id="Group_10771-2" data-name="Group 10771" transform="translate(0 0)">
            <path id="Path_18409" data-name="Path 18409" d="M995.067,960.595a1.359,1.359,0,0,1-1.352-1.37v-3.8a1.363,1.363,0,0,1,2.01-1.207l3.07,1.66a1.4,1.4,0,0,1,.47.422,1.375,1.375,0,0,1-.34,1.914l-3.07,2.136a1.358,1.358,0,0,1-.778.244Zm-.151-1.06,3.543-2.465-3.543-1.917Z" transform="translate(-976.226 -942.503)" fill="#775dff"/>
            <path id="Path_18410" data-name="Path 18410" d="M978.815,954.629a.6.6,0,0,1,0-1.208H983.7a.6.6,0,1,1,0,1.208Z" transform="translate(-974.907 -942.626)" fill="#775dff"/>
            <path id="Path_18411" data-name="Path 18411" d="M978.815,958.647a.6.6,0,1,1,0-1.207H983.7a.6.6,0,1,1,0,1.207Z" transform="translate(-974.907 -943.19)" fill="#775dff"/>
            <path id="Path_18412" data-name="Path 18412" d="M978.815,962.665a.6.6,0,1,1,0-1.207H983.7a.6.6,0,1,1,0,1.207Z" transform="translate(-974.907 -943.754)" fill="#775dff"/>
            <path id="Path_18413" data-name="Path 18413" d="M976.442,963.661a2.275,2.275,0,0,1-2.289-2.25v-18.3a2.276,2.276,0,0,1,2.29-2.251h23.1a2.275,2.275,0,0,1,2.289,2.25v18.3a2.275,2.275,0,0,1-2.289,2.25H976.442Zm-1-2.25a.991.991,0,0,0,1,.979h23.106a.99.99,0,0,0,1-.979V949.023h-25.1Zm1-19.276a.99.99,0,0,0-1,.979v4.639h25.1v-4.639a.99.99,0,0,0-1-.979Z" transform="translate(-974.153 -940.863)" fill="#775dff"/>
            <path id="Path_18414" data-name="Path 18414" d="M978.817,946.09a.6.6,0,1,1,.6-.6A.6.6,0,0,1,978.817,946.09Z" transform="translate(-974.908 -941.427)" fill="#775dff"/>
            <path id="Path_18415" data-name="Path 18415" d="M982.817,946.09a.6.6,0,1,1,.6-.6A.6.6,0,0,1,982.817,946.09Z" transform="translate(-975.128 -941.427)" fill="#775dff"/>
            <path id="Path_18416" data-name="Path 18416" d="M986.817,946.09a.6.6,0,1,1,.6-.6A.6.6,0,0,1,986.817,946.09Z" transform="translate(-975.612 -941.427)" fill="#775dff"/>
          </g>
        </g>
        <rect id="Rectangle_4663" data-name="Rectangle 4663" width="26.381" height="14.656" transform="translate(0.814 7.655)" fill="#775dff" opacity="0.1"/>
      </g>
    </g>
  </g>
</svg>
